<?xml version="1.0" ?><svg id="Layer_1" style="enable-background:new 0 0 100 100;" version="1.1" viewBox="0 0 100 100" xml:space="preserve" xmlns="http://www.w3.org/2000/svg" xmlns:xlink="http://www.w3.org/1999/xlink"><path d="M50,4C24.6,4,4,22.4,4,45c0,13.6,7.5,26.2,20,33.8L24,95c0,0.4,0.2,0.7,0.5,0.9C24.7,96,24.8,96,25,96  c0.2,0,0.4-0.1,0.5-0.2l16.1-10.5c2.7,0.5,5.6,0.7,8.4,0.7c25.4,0,46-18.4,46-41S75.4,4,50,4z M80.7,33.4l-25,25  c-0.4,0.4-1,0.4-1.4,0l-9.5-9.5l-24.4,9.8c-0.1,0-0.2,0.1-0.4,0.1c-0.3,0-0.6-0.2-0.8-0.4c-0.3-0.4-0.2-0.9,0.1-1.3l25-25  c0.4-0.4,1-0.4,1.4,0l9.5,9.5l24.4-9.8c0.4-0.2,0.9,0,1.2,0.4C81.1,32.5,81,33,80.7,33.4z"/></svg>